#!OML:ASF E:\Steps\Project 1\Capture day 1\Session 2\Subject.ASF
:FULLY-SPECIFIED
:DEGREES
239
root 1.81576 17.1313 12.5208 -140.365 -10.9505 165.337
lowerback -23.4315 -8.96677 -6.50395
upperback -2.96205 -10.7735 -1.35045
thorax 10.4989 -5.62087 -1.42526
lowerneck -2.08001 -4.68979 -3.8631
upperneck 19.8513 -4.65985 -1.15997
head 6.44749 -2.15748 0.0378719
rclavicle -1.36167e-014 2.70347e-014
rhumerus -54.6636 -13.0508 -72.2512
rradius 41.8895
rwrist -4.72664
rhand -6.62612 -51.1624
rfingers 7.12502
rthumb 19.2304 -80.2316
lclavicle -1.36167e-014 2.70347e-014
lhumerus -38.4509 -15.9269 68.0543
lradius 44.2352
lwrist 6.39203
lhand -20.3309 -14.4786
lfingers 7.12502
lthumb 6.02035 15.4158
rfemur -47.8276 5.20074 -18.5334
rtibia 7.14748
rfoot -7.51333 -30.8958
rtoes -11.4229
lfemur -18.2756 -14.5385 -17.5166
ltibia 32.9489
lfoot -18.3397 -14.6149
ltoes -1.11915
240
root 1.84499 17.1434 12.4667 -140.135 -10.9509 165.309
lowerback -23.0251 -8.9139 -6.00779
upperback -2.97038 -10.8456 -1.25488
thorax 10.2126 -5.63412 -1.53862
lowerneck -1.59457 -4.53337 -3.7764
upperneck 19.1428 -4.51663 -1.23419
head 6.1307 -2.09654 0.0243672
rclavicle -2.36554e-014 4.77083e-015
rhumerus -54.7784 -12.8081 -72.6546
rradius 42.3872
rwrist -5.5479
rhand -6.01439 -50.7485
rfingers 7.12502
rthumb 19.8185 -79.7581
lclavicle -2.36554e-014 4.77083e-015
lhumerus -37.6038 -17.0352 68.0596
lradius 44.0052
lwrist 4.97762
lhand -20.6468 -14.823
lfingers 7.12502
lthumb 5.71537 15.0799
rfemur -48.0324 4.80775 -18.11
rtibia 7.44595
rfoot -7.55453 -30.4632
rtoes -11.3478
lfemur -18.1192 -14.2162 -17.3565
ltibia 32.3411
lfoot -17.9009 -14.0703
ltoes -3.49332
241
root 1.87345 17.1521 12.4129 -139.858 -10.8807 165.316
lowerback -22.7898 -8.91794 -5.65775
upperback -3.01042 -10.9515 -1.03946
thorax 10.0316 -5.6692 -1.48194
lowerneck -0.976678 -4.41812 -3.95725
upperneck 18.486 -4.40345 -1.27405
head 5.81996 -2.05865 0.0654954
rclavicle 2.45499e-014 -7.15625e-015
rhumerus -54.8578 -12.4772 -72.8907
rradius 42.7818
rwrist -5.98569
rhand -5.91849 -50.5972
rfingers 7.12502
rthumb 19.9107 -79.5973
lclavicle 2.45499e-014 -7.15625e-015
lhumerus -36.9774 -17.8988 68.1271
lradius 44.1237
lwrist 3.95102
lhand -20.6731 -14.9103
lfingers 7.12502
lthumb 5.68993 14.9933
rfemur -48.4465 4.09814 -17.3757
rtibia 8.06185
rfoot -7.37622 -29.6795
rtoes -12.3693
lfemur -18.0668 -14.0917 -17.2024
ltibia 31.8003
lfoot -17.3489 -13.6195
ltoes -3.57407
242
root 1.90476 17.1565 12.36 -139.614 -10.7199 165.289
lowerback -22.6791 -8.71429 -5.29243
upperback -2.61517 -10.7052 -1.10887
thorax 10.3345 -5.511 -1.69031
lowerneck -1.55403 -4.56926 -3.7756
upperneck 18.1299 -4.75504 -0.932312
head 5.81252 -2.22916 0.111292
rclavicle 8.06072e-014 3.27995e-014
rhumerus -54.4202 -13.0877 -73.3694
rradius 42.989
rwrist -5.90959
rhand -5.95104 -50.1204
rfingers 7.12502
rthumb 19.8794 -79.1237
lclavicle 8.06072e-014 3.27995e-014
lhumerus -35.1728 -19.1149 67.6452
lradius 44.1848
lwrist 3.37034
lhand -20.8808 -14.9511
lfingers 7.12502
lthumb 5.48945 14.9578
rfemur -48.8861 3.73997 -17.008
rtibia 8.57735
rfoot -7.60992 -29.1352
rtoes -12.2205
lfemur -17.9881 -14.1069 -17.1192
ltibia 31.3141
lfoot -16.5853 -13.4183
ltoes -1.35714
243
root 1.93579 17.1565 12.3111 -139.312 -10.5111 165.273
lowerback -22.4891 -8.62447 -4.99999
upperback -2.46781 -10.6403 -1.02148
thorax 10.3661 -5.45712 -1.71317
lowerneck -1.16999 -4.14114 -3.6092
upperneck 16.933 -4.29399 -1.04139
head 5.35725 -2.02401 0.0912718
rclavicle 1.19867e-013 5.06901e-014
rhumerus -54.1412 -13.0211 -73.7184
rradius 43
rwrist -5.70425
rhand -5.39719 -49.5674
rfingers 7.12502
rthumb 20.4118 -78.5146
lclavicle 1.19867e-013 5.06901e-014
lhumerus -33.9217 -19.7135 67.3131
lradius 44.3197
lwrist 2.73227
lhand -21.3947 -14.8328
lfingers 7.12502
lthumb 4.9932 15.0884
rfemur -49.485 3.31279 -16.6728
rtibia 9.13436
rfoot -7.91388 -28.4993
rtoes -11.3137
lfemur -17.9828 -14.038 -17.0572
ltibia 30.923
lfoot -16.4298 -12.7501
ltoes -5.50388
244
root 1.96455 17.156 12.2629 -138.996 -10.2705 165.213
lowerback -22.1803 -8.49709 -4.74536
upperback -2.41508 -10.5353 -0.94538
thorax 10.2299 -5.3935 -1.68718
lowerneck -2.06769 -4.47188 -3.80134
upperneck 17.5685 -4.7153 -0.841465
head 5.72531 -2.23766 0.137485
rclavicle 2.00773e-014 -3.39922e-014
rhumerus -53.9308 -13.0152 -73.866
rradius 42.811
rwrist -5.37412
rhand -4.54623 -49.1964
rfingers 7.12502
rthumb 21.2293 -78.0539
lclavicle 2.00773e-014 -3.39922e-014
lhumerus -32.7892 -20.3643 67.0443
lradius 44.6012
lwrist 2.3086
lhand -21.8433 -14.6846
lfingers 7.12502
lthumb 4.5601 15.2463
rfemur -50.1067 2.61602 -16.1591
rtibia 9.78588
rfoot -7.81779 -27.655
rtoes -11.7474
lfemur -17.9934 -14.0664 -17.0786
ltibia 30.6006
lfoot -16.4296 -12.0196
ltoes -9.30848
245
root 1.99602 17.1561 12.2137 -138.717 -9.93391 165.145
lowerback -21.8504 -8.49507 -4.72096
upperback -2.47926 -10.5633 -0.740061
thorax 10.0204 -5.4091 -1.43059
lowerneck -1.28506 -4.17413 -3.89422
upperneck 16.1988 -4.39656 -1.09672
head 5.1565 -2.1178 0.117016
rclavicle -5.91384e-015 -1.05356e-014
rhumerus -53.7911 -12.2881 -74.1678
rradius 42.6508
rwrist -5.09756
rhand -4.66524 -50.0786
rfingers 7.12502
rthumb 21.115 -78.9489
lclavicle -5.91384e-015 -1.05356e-014
lhumerus -32.1338 -20.611 66.92
lradius 45.1623
lwrist 2.23143
lhand -22.1556 -14.5572
lfingers 7.12502
lthumb 4.25854 15.3799
rfemur -50.6889 2.1852 -15.8297
rtibia 10.3161
rfoot -7.66696 -27.049
rtoes -12.729
lfemur -18.0024 -14.2154 -17.1611
ltibia 30.3556
lfoot -16.1682 -11.6424
ltoes -8.5958
246
root 2.02924 17.1554 12.1638 -138.494 -9.61999 165.095
lowerback -21.6038 -8.36759 -4.70822
upperback -2.43327 -10.4001 -0.717447
thorax 9.93802 -5.32902 -1.32781
lowerneck -1.28616 -4.35468 -3.68125
upperneck 16.2537 -4.65075 -1.11544
head 5.17064 -2.2315 0.0631371
rclavicle 3.65764e-014 -6.75868e-015
rhumerus -53.7356 -11.9742 -74.6342
rradius 42.4918
rwrist -4.77587
rhand -5.64648 -52.3881
rfingers 7.12502
rthumb 20.1722 -81.3608
lclavicle 3.65764e-014 -6.75868e-015
lhumerus -31.1451 -21.1643 66.5811
lradius 45.6593
lwrist 2.41513
lhand -22.4502 -14.3649
lfingers 7.12502
lthumb 3.97405 15.5778
rfemur -51.2648 1.79512 -15.4269
rtibia 10.9582
rfoot -7.63973 -26.3762
rtoes -13.7325
lfemur -17.9659 -14.3704 -17.2206
ltibia 30.1298
lfoot -15.8469 -11.4331
ltoes -8.25774
247
root 2.06147 17.1514 12.1096 -138.38 -9.43256 165.01
lowerback -21.3303 -8.28318 -4.67328
upperback -2.1752 -10.27 -0.689196
thorax 10.0781 -5.25015 -1.25963
lowerneck -1.59028 -4.44118 -3.43103
upperneck 15.8336 -4.84672 -1.09338
head 5.08671 -2.33304 0.0153908
rclavicle 3.88624e-014 -1.25234e-014
rhumerus -53.1248 -11.8322 -75.1292
rradius 41.984
rwrist -4.42933
rhand -6.13871 -53.2116
rfingers 7.12502
rthumb 19.699 -82.2334
lclavicle 3.88624e-014 -1.25234e-014
lhumerus -29.5021 -21.4672 66.0907
lradius 45.7728
lwrist 2.74975
lhand -22.6015 -13.9586
lfingers 7.12502
lthumb 3.82788 15.9867
rfemur -51.7275 1.29422 -14.8452
rtibia 11.8307
rfoot -7.91601 -25.5512
rtoes -14.2415
lfemur -17.7608 -14.6486 -17.2706
ltibia 29.8553
lfoot -15.699 -11.0703
ltoes -10.8386
248
root 2.09471 17.1456 12.0566 -138.181 -9.2248 164.883
lowerback -21.0161 -8.62899 -4.94448
upperback -2.42988 -10.7256 -0.217922
thorax 9.78462 -5.48957 -0.684295
lowerneck -0.681746 -4.14762 -4.39292
upperneck 15.3593 -4.45823 -0.81335
head 4.81636 -2.16778 0.300133
rclavicle -8.44835e-014 -1.87355e-014
rhumerus -52.9748 -10.1853 -75.3554
rradius 41.4901
rwrist -4.11134
rhand -6.2818 -53.1974
rfingers 7.12502
rthumb 19.5614 -82.2333
lclavicle -8.44835e-014 -1.87355e-014
lhumerus -29.4579 -20.7098 66.2001
lradius 46.229
lwrist 3.30559
lhand -22.416 -13.5121
lfingers 7.12502
lthumb 4.00711 16.43
rfemur -52.2493 0.772555 -14.379
rtibia 12.677
rfoot -8.24029 -24.7723
rtoes -14.3185
lfemur -17.6944 -14.7696 -17.3289
ltibia 29.63
lfoot -15.6043 -10.7236
ltoes -13.2295
249
root 2.12799 17.1418 12.0084 -137.914 -8.99768 164.706
lowerback -20.8371 -8.4391 -4.86234
upperback -2.11206 -10.4531 -0.376164
thorax 9.98713 -5.34074 -0.815423
lowerneck -1.39112 -4.26761 -4.01864
upperneck 15.1846 -4.6963 -0.687746
head 4.87698 -2.2818 0.252242
rclavicle -5.22307e-014 -3.4837e-014
rhumerus -52.5427 -10.8674 -75.6438
rradius 41.3302
rwrist -3.46837
rhand -6.56439 -54.2358
rfingers 7.12502
rthumb 19.2897 -83.2991
lclavicle -5.22307e-014 -3.4837e-014
lhumerus -27.5829 -21.3083 65.3798
lradius 46.7642
lwrist 4.23464
lhand -22.2031 -13.358
lfingers 7.12502
lthumb 4.21266 16.58
rfemur -52.8176 0.122006 -13.9185
rtibia 13.5078
rfoot -8.43779 -23.9128
rtoes -14.3829
lfemur -17.6976 -14.6717 -17.4142
ltibia 29.3412
lfoot -15.206 -10.6307
ltoes -13.054
250
root 2.16217 17.1398 11.9562 -137.854 -8.83463 164.611
lowerback -20.408 -8.50431 -4.90433
upperback -2.12483 -10.5532 -0.197037
thorax 9.7903 -5.39117 -0.567773
lowerneck -0.62242 -3.9655 -4.04395
upperneck 13.968 -4.31918 -0.983615
head 4.83965 -2.10708 0.209945
rclavicle -3.44068e-014 1.02157e-014
rhumerus -52.6239 -10.4098 -75.7091
rradius 41.3944
rwrist -3.06976
rhand -6.12169 -53.701
rfingers 7.12502
rthumb 19.7154 -82.7212
lclavicle -3.44068e-014 1.02157e-014
lhumerus -26.7673 -20.9193 65.1478
lradius 47.2111
lwrist 4.51647
lhand -22.1855 -13.6156
lfingers 7.12502
lthumb 4.22963 16.3222
rfemur -53.2001 -0.240064 -13.4247
rtibia 14.3461
rfoot -8.9053 -23.1478
rtoes -13.9579
lfemur -17.3495 -14.7998 -17.4409
ltibia 28.8432
lfoot -14.8203 -10.2634
ltoes -14.4454
251
root 2.1979 17.1352 11.8997 -137.79 -8.80137 164.732
lowerback -20.2605 -7.96183 -4.44405
upperback -1.63166 -9.86563 -0.613875
thorax 10.0745 -5.02181 -1.07012
lowerneck -1.43734 -4.30224 -2.90264
upperneck 13.8295 -4.89708 -0.864437
head 4.92358 -2.35493 0.00637714
rclavicle -2.8333e-014 -6.23687e-015
rhumerus -52.2569 -12.0877 -76.0667
rradius 40.9759
rwrist -2.56487
rhand -5.8697 -53.2711
rfingers 7.12502
rthumb 19.9576 -82.2663
lclavicle -2.8333e-014 -6.23687e-015
lhumerus -24.1759 -22.2246 63.9997
lradius 47.4162
lwrist 5.06069
lhand -22.2044 -13.9243
lfingers 7.12502
lthumb 4.21135 16.0138
rfemur -53.5221 -0.281739 -12.8875
rtibia 14.9331
rfoot -9.3507 -22.6365
rtoes -13.7249
lfemur -17.0573 -14.9582 -17.1598
ltibia 28.4037
lfoot -14.42 -9.80298
ltoes -15.7518
252
root 2.23123 17.1286 11.8428 -137.533 -8.91505 164.897
lowerback -20.175 -8.2648 -4.17668
upperback -1.86605 -10.3686 -0.0823063
thorax 9.84214 -5.2587 -0.760608
lowerneck -0.7347 -3.94444 -3.88521
upperneck 13.4617 -4.39218 -0.728474
head 4.67627 -2.14018 0.267509
rclavicle -3.31722e-014 2.74323e-014
rhumerus -52.0207 -10.3888 -76.3179
rradius 40.4841
rwrist -2.80782
rhand -5.73356 -53.2055
rfingers 7.12502
rthumb 20.0885 -82.187
lclavicle -3.31722e-014 2.74323e-014
lhumerus -24.1119 -21.0913 64.1246
lradius 47.7754
lwrist 5.27121
lhand -22.4276 -13.9743
lfingers 7.12502
lthumb 3.99584 15.968
rfemur -53.9131 -0.533514 -12.212
rtibia 15.3931
rfoot -9.62917 -22.1245
rtoes -13.7659
lfemur -17.0365 -14.9384 -16.6753
ltibia 28.033
lfoot -13.7402 -9.67512
ltoes -14.5216
